<?xml version="1.0" encoding="UTF-8"?>
<svg width="800" height="600" xmlns="http://www.w3.org/2000/svg">
  <style>
    .title { font: bold 24px sans-serif; }
    .label { font: 14px sans-serif; }
    .axis { font: 12px sans-serif; }
    .bar { fill: #4CAF50; opacity: 0.8; }
    .bar:hover { opacity: 1; }
    .error-bar { stroke: #333; stroke-width: 2; }
    .grid { stroke: #ddd; stroke-width: 1; opacity: 0.5; }
  </style>
  
  <!-- Título -->
  <text x="400.0" y="40" text-anchor="middle" class="title">Comparação de Throughput por Configuração</text>
  
  <!-- Grid -->
  <line x1="100" y1="500.0" x2="750" y2="500.0" class="grid"/>
  <text x="90" y="505.0" text-anchor="end" class="axis">0</text>
  <line x1="100" y1="416.0" x2="750" y2="416.0" class="grid"/>
  <text x="90" y="421.0" text-anchor="end" class="axis">12</text>
  <line x1="100" y1="332.0" x2="750" y2="332.0" class="grid"/>
  <text x="90" y="337.0" text-anchor="end" class="axis">24</text>
  <line x1="100" y1="248.0" x2="750" y2="248.0" class="grid"/>
  <text x="90" y="253.0" text-anchor="end" class="axis">37</text>
  <line x1="100" y1="164.0" x2="750" y2="164.0" class="grid"/>
  <text x="90" y="169.0" text-anchor="end" class="axis">49</text>
  <line x1="100" y1="80.0" x2="750" y2="80.0" class="grid"/>
  <text x="90" y="85.0" text-anchor="end" class="axis">61</text>

  <!-- Barras -->
  <rect x="110.83333333333333" y="151.68047778066455" width="86.66666666666667" height="348.31952221933545" class="bar">
    <title>Baseline: 50.5 Gbps</title>
  </rect>
  <line x1="154.16666666666666" y1="148.24189368917501" x2="154.16666666666666" y2="155.11906187215408" class="error-bar"/>
  <line x1="149.16666666666666" y1="148.24189368917501" x2="159.16666666666666" y2="148.24189368917501" class="error-bar"/>
  <line x1="149.16666666666666" y1="155.11906187215408" x2="159.16666666666666" y2="155.11906187215408" class="error-bar"/>
  <text x="154.16666666666666" y="520" text-anchor="middle" class="label" transform="rotate(-45 154.16666666666666 520)">Baseline</text>
  <rect x="219.16666666666669" y="205.04777708861292" width="86.66666666666667" height="294.9522229113871" class="bar">
    <title>Window 64K: 42.7 Gbps</title>
  </rect>
  <line x1="262.5" y1="200.7020167750148" x2="262.5" y2="209.39353740221102" class="error-bar"/>
  <line x1="257.5" y1="200.7020167750148" x2="267.5" y2="200.7020167750148" class="error-bar"/>
  <line x1="257.5" y1="209.39353740221102" x2="267.5" y2="209.39353740221102" class="error-bar"/>
  <text x="262.5" y="520" text-anchor="middle" class="label" transform="rotate(-45 262.5 520)">Window 64K</text>
  <rect x="327.5" y="161.68033191085368" width="86.66666666666667" height="338.3196680891463" class="bar">
    <title>Window 128K: 49.0 Gbps</title>
  </rect>
  <line x1="370.8333333333333" y1="158.20230070428923" x2="370.8333333333333" y2="165.15836311741813" class="error-bar"/>
  <line x1="365.8333333333333" y1="158.20230070428923" x2="375.8333333333333" y2="158.20230070428923" class="error-bar"/>
  <line x1="365.8333333333333" y1="165.15836311741813" x2="375.8333333333333" y2="165.15836311741813" class="error-bar"/>
  <text x="370.8333333333333" y="520" text-anchor="middle" class="label" transform="rotate(-45 370.8333333333333 520)">Window 128K</text>
  <rect x="435.8333333333333" y="155.52096670272448" width="86.66666666666667" height="344.4790332972755" class="bar">
    <title>Window 256K: 49.9 Gbps</title>
  </rect>
  <line x1="479.16666666666663" y1="154.13771586063095" x2="479.16666666666663" y2="156.904217544818" class="error-bar"/>
  <line x1="474.16666666666663" y1="154.13771586063095" x2="484.16666666666663" y2="154.13771586063095" class="error-bar"/>
  <line x1="474.16666666666663" y1="156.904217544818" x2="484.16666666666663" y2="156.904217544818" class="error-bar"/>
  <text x="479.16666666666663" y="520" text-anchor="middle" class="label" transform="rotate(-45 479.16666666666663 520)">Window 256K</text>
  <rect x="544.1666666666667" y="147.69601020419498" width="86.66666666666667" height="352.303989795805" class="bar">
    <title>4 Streams: 51.0 Gbps</title>
  </rect>
  <line x1="587.5000000000001" y1="145.66148893433797" x2="587.5000000000001" y2="149.730531474052" class="error-bar"/>
  <line x1="582.5000000000001" y1="145.66148893433797" x2="592.5000000000001" y2="145.66148893433797" class="error-bar"/>
  <line x1="582.5000000000001" y1="149.730531474052" x2="592.5000000000001" y2="149.730531474052" class="error-bar"/>
  <text x="587.5000000000001" y="520" text-anchor="middle" class="label" transform="rotate(-45 587.5000000000001 520)">4 Streams</text>
  <rect x="652.5000000000001" y="80.0" width="86.66666666666667" height="420.0" class="bar">
    <title>Combined: 60.9 Gbps</title>
  </rect>
  <text x="695.8333333333335" y="520" text-anchor="middle" class="label" transform="rotate(-45 695.8333333333335 520)">Combined</text>

  <!-- Eixos -->
  <line x1="100" y1="80" x2="100" y2="500" stroke="#333" stroke-width="2"/>
  <line x1="100" y1="500" x2="750" y2="500" stroke="#333" stroke-width="2"/>
  
  <!-- Labels dos eixos -->
  <text x="400.0" y="580" text-anchor="middle" class="label">Configuração</text>
  <text x="40" y="300.0" text-anchor="middle" class="label" transform="rotate(-90 40 300.0)">Throughput (Gbps)</text>
</svg>